<?xml version="1.0" encoding="UTF-8"?>
<svg id="Calque_2" data-name="Calque 2" xmlns="http://www.w3.org/2000/svg" xmlns:xlink="http://www.w3.org/1999/xlink" viewBox="0 0 1600 900">
  <defs>
    <style>
      .cls-1 {
        stroke: url(#Dégradé_sans_nom_8);
      }

      .cls-1, .cls-2, .cls-3, .cls-4, .cls-5, .cls-6, .cls-7, .cls-8, .cls-9, .cls-10, .cls-11, .cls-12, .cls-13, .cls-14, .cls-15, .cls-16, .cls-17, .cls-18 {
        fill: none;
      }

      .cls-1, .cls-2, .cls-3, .cls-4, .cls-5, .cls-7, .cls-8, .cls-9, .cls-10, .cls-11, .cls-12, .cls-13, .cls-14, .cls-15, .cls-16, .cls-17, .cls-18 {
        stroke-linecap: round;
        stroke-linejoin: round;
        stroke-width: 5.67px;
      }

      .cls-19 {
        fill: url(#Dégradé_sans_nom_8-13);
      }

      .cls-2 {
        stroke: url(#Dégradé_sans_nom_8-17);
      }

      .cls-3 {
        stroke: url(#Dégradé_sans_nom_8-8);
      }

      .cls-20 {
        letter-spacing: .01em;
      }

      .cls-4 {
        stroke: url(#Dégradé_sans_nom_8-19);
      }

      .cls-21 {
        fill: url(#Dégradé_sans_nom_11-4);
      }

      .cls-5 {
        stroke: url(#Dégradé_sans_nom_8-2);
      }

      .cls-22 {
        fill: url(#Dégradé_sans_nom_8-14);
      }

      .cls-7 {
        stroke: url(#Dégradé_sans_nom_8-3);
      }

      .cls-8 {
        stroke: url(#Dégradé_sans_nom_8-18);
      }

      .cls-23 {
        fill: #00a7a2;
        font-family: RedHatDisplay-Bold, 'Red Hat Display';
        font-size: 113.39px;
        font-weight: 700;
      }

      .cls-24 {
        letter-spacing: 0em;
      }

      .cls-9 {
        stroke: url(#Dégradé_sans_nom_8-20);
      }

      .cls-25 {
        fill: url(#Dégradé_sans_nom_8-9);
      }

      .cls-26 {
        fill: url(#Dégradé_sans_nom_8-11);
      }

      .cls-10 {
        stroke: url(#Dégradé_sans_nom_11);
      }

      .cls-11 {
        stroke: url(#Dégradé_sans_nom_8-5);
      }

      .cls-12 {
        stroke: url(#Dégradé_sans_nom_8-7);
      }

      .cls-27 {
        letter-spacing: .01em;
      }

      .cls-28 {
        fill: url(#Dégradé_sans_nom_8-12);
      }

      .cls-13 {
        stroke: url(#Dégradé_sans_nom_11-3);
      }

      .cls-14 {
        stroke: url(#Dégradé_sans_nom_11-2);
      }

      .cls-15 {
        stroke: url(#Dégradé_sans_nom_8-15);
      }

      .cls-29 {
        fill: url(#Dégradé_sans_nom_11-5);
      }

      .cls-30 {
        letter-spacing: -.01em;
      }

      .cls-16 {
        stroke: url(#Dégradé_sans_nom_8-6);
      }

      .cls-17 {
        stroke: url(#Dégradé_sans_nom_8-16);
      }

      .cls-18 {
        stroke: url(#Dégradé_sans_nom_8-4);
      }

      .cls-31 {
        fill: url(#Dégradé_sans_nom_8-10);
      }

      .cls-32 {
        letter-spacing: .02em;
      }

      .cls-33 {
        letter-spacing: 0em;
      }
    </style>
    <linearGradient id="Dégradé_sans_nom_8" data-name="Dégradé sans nom 8" x1="266.79" y1="382.37" x2="282.12" y2="382.37" gradientUnits="userSpaceOnUse">
      <stop offset="0" stop-color="#77c14c"/>
      <stop offset="1" stop-color="#15afa0"/>
    </linearGradient>
    <linearGradient id="Dégradé_sans_nom_8-2" data-name="Dégradé sans nom 8" x1="241.04" x2="256.38" xlink:href="#Dégradé_sans_nom_8"/>
    <linearGradient id="Dégradé_sans_nom_8-3" data-name="Dégradé sans nom 8" x1="241.04" y1="439.05" x2="256.38" y2="439.05" xlink:href="#Dégradé_sans_nom_8"/>
    <linearGradient id="Dégradé_sans_nom_8-4" data-name="Dégradé sans nom 8" y1="439.05" y2="439.05" xlink:href="#Dégradé_sans_nom_8"/>
    <linearGradient id="Dégradé_sans_nom_8-5" data-name="Dégradé sans nom 8" x1="267.1" y1="315.19" x2="280.89" y2="315.19" xlink:href="#Dégradé_sans_nom_8"/>
    <linearGradient id="Dégradé_sans_nom_8-6" data-name="Dégradé sans nom 8" x1="297.41" y1="323.89" x2="309.22" y2="323.89" xlink:href="#Dégradé_sans_nom_8"/>
    <linearGradient id="Dégradé_sans_nom_8-7" data-name="Dégradé sans nom 8" x1="337.08" y1="371.02" x2="348.17" y2="371.02" xlink:href="#Dégradé_sans_nom_8"/>
    <linearGradient id="Dégradé_sans_nom_11" data-name="Dégradé sans nom 11" x1="300.99" y1="425.86" x2="345.08" y2="425.86" gradientUnits="userSpaceOnUse">
      <stop offset="0" stop-color="#76b840"/>
      <stop offset="1" stop-color="#00a89e"/>
    </linearGradient>
    <linearGradient id="Dégradé_sans_nom_11-2" data-name="Dégradé sans nom 11" x1="242.25" y1="396.64" x2="306.66" y2="396.64" xlink:href="#Dégradé_sans_nom_11"/>
    <linearGradient id="Dégradé_sans_nom_11-3" data-name="Dégradé sans nom 11" x1="212.93" y1="365.53" x2="389.83" y2="365.53" xlink:href="#Dégradé_sans_nom_11"/>
    <linearGradient id="Dégradé_sans_nom_11-4" data-name="Dégradé sans nom 11" x1="338.02" y1="439.04" x2="459.08" y2="439.04" xlink:href="#Dégradé_sans_nom_11"/>
    <linearGradient id="Dégradé_sans_nom_8-8" data-name="Dégradé sans nom 8" x1="378.38" y1="384.56" x2="418.71" y2="384.56" xlink:href="#Dégradé_sans_nom_8"/>
    <linearGradient id="Dégradé_sans_nom_8-9" data-name="Dégradé sans nom 8" x1="316.33" y1="479.33" x2="325.15" y2="479.33" xlink:href="#Dégradé_sans_nom_8"/>
    <linearGradient id="Dégradé_sans_nom_8-10" data-name="Dégradé sans nom 8" x1="332.27" y1="496.87" x2="345.11" y2="496.87" xlink:href="#Dégradé_sans_nom_8"/>
    <linearGradient id="Dégradé_sans_nom_8-11" data-name="Dégradé sans nom 8" x1="307.69" y1="500.02" x2="318.99" y2="500.02" xlink:href="#Dégradé_sans_nom_8"/>
    <linearGradient id="Dégradé_sans_nom_8-12" data-name="Dégradé sans nom 8" x1="290.87" y1="491.87" x2="295.87" y2="491.87" xlink:href="#Dégradé_sans_nom_8"/>
    <linearGradient id="Dégradé_sans_nom_8-13" data-name="Dégradé sans nom 8" x1="301.68" y1="483.23" x2="308.49" y2="483.23" xlink:href="#Dégradé_sans_nom_8"/>
    <linearGradient id="Dégradé_sans_nom_8-14" data-name="Dégradé sans nom 8" x1="283.35" y1="479.33" x2="290.16" y2="479.33" xlink:href="#Dégradé_sans_nom_8"/>
    <linearGradient id="Dégradé_sans_nom_8-15" data-name="Dégradé sans nom 8" x1="428.69" y1="346.2" x2="469.49" y2="346.2" xlink:href="#Dégradé_sans_nom_8"/>
    <linearGradient id="Dégradé_sans_nom_8-16" data-name="Dégradé sans nom 8" x1="470.99" y1="320.07" x2="484.15" y2="326.25" xlink:href="#Dégradé_sans_nom_8"/>
    <linearGradient id="Dégradé_sans_nom_8-17" data-name="Dégradé sans nom 8" x1="444.04" y1="307.8" x2="457.21" y2="313.98" xlink:href="#Dégradé_sans_nom_8"/>
    <linearGradient id="Dégradé_sans_nom_8-18" data-name="Dégradé sans nom 8" x1="463.48" y1="581.71" x2="513.98" y2="605.43" gradientTransform="translate(274.85 -319.74) rotate(25.16) scale(1 .84)" xlink:href="#Dégradé_sans_nom_8"/>
    <linearGradient id="Dégradé_sans_nom_8-19" data-name="Dégradé sans nom 8" x1="370.65" y1="581.12" x2="421.14" y2="604.84" gradientTransform="translate(274.85 -319.74) rotate(25.16) scale(1 .84)" xlink:href="#Dégradé_sans_nom_8"/>
    <linearGradient id="Dégradé_sans_nom_8-20" data-name="Dégradé sans nom 8" x1="431.31" y1="544.33" x2="457.71" y2="544.33" gradientTransform="translate(19.83 -227.82)" xlink:href="#Dégradé_sans_nom_8"/>
    <linearGradient id="Dégradé_sans_nom_11-5" data-name="Dégradé sans nom 11" x1="333" y1="435.89" x2="449.09" y2="435.89" xlink:href="#Dégradé_sans_nom_11"/>
  </defs>
  <g id="Calque_1-2" data-name="Calque 1">
    <rect class="cls-6" width="1600" height="900"/>
    <text class="cls-23" transform="translate(536.42 459.96)"><tspan class="cls-33" x="0" y="0">Ur</tspan><tspan class="cls-27" x="130.73" y="0">b</tspan><tspan class="cls-24" x="203.98" y="0">an </tspan><tspan class="cls-32" x="360.33" y="0">S</tspan><tspan class="cls-20" x="434.15" y="0">qua</tspan><tspan class="cls-30" x="639.26" y="0">r</tspan><tspan class="cls-33" x="684.27" y="0">e</tspan></text>
    <g>
      <g id="urgan_square" data-name="urgan square">
        <rect class="cls-1" x="269.62" y="365.53" width="9.67" height="33.66"/>
        <rect class="cls-5" x="243.87" y="365.53" width="9.67" height="33.66"/>
        <rect class="cls-7" x="243.87" y="422.21" width="9.67" height="33.66"/>
        <rect class="cls-18" x="269.62" y="422.21" width="9.67" height="33.66"/>
        <rect class="cls-11" x="269.93" y="311.13" width="8.12" height="8.12"/>
        <rect class="cls-16" x="300.24" y="320.82" width="6.14" height="6.14"/>
        <rect class="cls-12" x="339.91" y="368.31" width="5.42" height="5.42"/>
        <polyline class="cls-10" points="303.83 384.56 325.94 384.56 325.94 378.41 334.49 378.41 334.49 384.56 342.25 384.56 342.25 473.31"/>
        <polyline class="cls-14" points="245.08 312.92 280.32 335.34 280.32 329.02 294.14 329.02 294.14 344.14 303.83 350.31 303.83 480.36"/>
        <path class="cls-13" d="M387,281.97c-12.78-5.83-27.6-9.88-44.5-10.74h-.23c-7.46-.55-19.45.66-19.45.66l-.32.04c-12.44,1.37-23.49,4.61-33.03,8.66h0c-5.09,2.06-12.16,5.98-12.16,5.98l-.11.07c-19.55,11.01-30.09,23.9-30.09,23.9,0,0-.79.89-2.03,2.38-2.93,3.52-8.39,10.37-12.05,16.76,0,0-9.16,12.28-14.15,35.86h1.15s5.13,0,5.13,0v33.66h-9.4c.75,33.05,20.75,60.77,20.75,60.77"/>
      </g>
      <path class="cls-21" d="M455.24,363.83s22.9,70.71-43.03,124.96c0,0-29.08,25.2-74.19,25.45,0,0,130.49-42.59,117.22-150.41Z"/>
      <path class="cls-3" d="M381.22,379.79s13.75-4.49,18.05,10.19c0,0,7.73-8.16,16.61,0"/>
      <rect class="cls-25" x="316.33" y="474.92" width="8.82" height="8.82" rx="1.42" ry="1.42"/>
      <rect class="cls-31" x="332.27" y="490.45" width="12.83" height="12.83" rx="1.42" ry="1.42"/>
      <rect class="cls-26" x="307.69" y="494.37" width="11.3" height="11.3" rx="1.39" ry="1.39"/>
      <rect class="cls-28" x="290.87" y="489.37" width="5" height="5" rx="1.44" ry="1.44"/>
      <rect class="cls-19" x="301.68" y="479.83" width="6.81" height="6.81" rx="1.44" ry="1.44"/>
      <rect class="cls-22" x="283.35" y="475.93" width="6.81" height="6.81" rx="1.44" ry="1.44"/>
      <path class="cls-15" d="M431.53,342.96l35.12,14.87s.83-15.97-10.74-21.76-24.38,6.89-24.38,6.89Z"/>
      <line class="cls-17" x1="473.62" y1="321.12" x2="481.52" y2="325.19"/>
      <line class="cls-2" x1="446.68" y1="308.85" x2="454.57" y2="312.92"/>
      <polygon class="cls-8" points="522.97 355.11 475.7 332.91 489.3 319.83 536.42 341.96 522.97 355.11"/>
      <polygon class="cls-4" points="439.15 315.2 391.88 292.99 405.48 279.91 452.6 302.04 439.15 315.2"/>
      <rect class="cls-9" x="453.97" y="302.73" width="20.73" height="27.58" transform="translate(178.61 -167.38) rotate(25.16)"/>
      <path class="cls-29" d="M449.09,374.78c-8.31,57.02-63.75,86.61-115.56,98.25-.31.07-.54.35-.54.67v11.79c0,.38.31.69.69.69h15.32c.38,0,.69.31.69.69v9.44c0,.5.53.84.98.63,100.26-45.93,98.41-122.16,98.41-122.16Z"/>
    </g>
  </g>
</svg>