<?xml version="1.0" encoding="iso-8859-1"?>
<!-- Uploaded to: SVG Repo, www.svgrepo.com, Generator: SVG Repo Mixer Tools -->
<svg height="800px" width="800px" version="1.1" id="Layer_1" xmlns="http://www.w3.org/2000/svg" xmlns:xlink="http://www.w3.org/1999/xlink" 
	 viewBox="0 0 512 512" xml:space="preserve">
<g>
	<path style="fill:#FFD940;" d="M434.741,257.334l-0.005,0.013c0,0,27.583-21.036,27.498-46.883
		c-0.082-25.742-27.564-46.534-27.792-46.71l0.001-0.007l-0.006,0.006l-0.007-0.01l-0.002,0.007
		c-0.116,0.093-27.565,21.086-27.489,46.879C407.025,236.413,434.615,257.252,434.741,257.334z"/>
	<path style="fill:#FFD940;" d="M501.139,372.133l0.003-0.006l-0.013,0.002v-0.008l-0.004,0.006
		c-0.095-0.011-3.988-0.503-9.798-0.461c-0.324,0.457-0.656,0.909-0.999,1.355c14.421-18.713,10.823-48.216,10.81-48.353
		l0.003-0.006l-0.013,0.002v-0.008l-0.004,0.006c-0.095-0.011-3.988-0.504-9.798-0.461c-0.324,0.457-0.656,0.909-0.999,1.355
		c14.421-18.712,10.823-48.216,10.81-48.353l0.003-0.006l-0.013,0.002v-0.008l-0.004,0.006c-0.095-0.011-3.988-0.504-9.798-0.461
		c13.251-18.747,9.825-46.862,9.811-46.995l0.003-0.006l-0.011,0.002v-0.008l-0.004,0.006c-0.281-0.033-33.979-4.33-52.237,13.816
		c-9.767,9.707-13.139,23.874-14.16,34.997c-1.02-11.122-4.392-25.29-14.16-34.997c-18.258-18.146-51.956-13.85-52.237-13.816
		l-0.004-0.006v0.008l-0.011-0.002l0.003,0.006c-0.014,0.133-3.44,28.248,9.811,46.995c-5.809-0.042-9.703,0.451-9.798,0.461
		l-0.004-0.006v0.008l-0.013-0.002l0.003,0.006c-0.014,0.136-3.612,29.641,10.81,48.353c-0.342-0.446-0.676-0.898-0.999-1.355
		c-5.809-0.042-9.703,0.451-9.798,0.461l-0.004-0.006v0.008l-0.013-0.002l0.003,0.006c-0.014,0.137-3.629,29.754,10.889,48.462
		l-3.73-1.467c-5.809-0.042-7.052,0.453-7.147,0.465l-0.004-0.006v0.008l-0.013-0.002l0.003,0.006
		c-0.015,0.146-4.146,33.966,14.143,52.151c18.29,18.175,52.095,13.836,52.241,13.807l0.005,0.013c0,0,0.008-0.073,0.021-0.177
		c0.011,0.105,0.02,0.177,0.02,0.177l0.005-0.013c0.146,0.029,33.952,4.368,52.241-13.807
		C505.285,406.099,501.153,372.279,501.139,372.133z M434.75,295.709l0.005-0.013c0.049,0.01,3.956,0.511,9.803,0.469
		c-6.499,9.191-8.983,20.631-9.829,29.929c-0.846-9.297-3.328-20.738-9.829-29.929c5.847,0.042,9.754-0.459,9.803-0.469l0.005,0.013
		 M434.75,390.638l0.005-0.013c0.05,0.01,4.014,0.52,9.937,0.469c-0.044,0-0.092,0.002-0.135,0.002
		c-6.499,9.191-8.983,20.633-9.829,29.929c-0.846-9.297-3.328-20.738-9.829-29.929l-0.005-0.002c5.85,0.043,9.759-0.459,9.809-0.469
		l0.005,0.013 M434.75,343.173l0.005-0.013c0.05,0.01,4.014,0.52,9.937,0.469c-0.044,0-0.092,0.002-0.135,0.002
		c-6.499,9.191-8.983,20.633-9.829,29.929c-0.846-9.297-3.328-20.738-9.829-29.929c-0.043,0-0.091-0.002-0.135-0.002
		c5.923,0.051,9.887-0.458,9.937-0.469l0.005,0.013"/>
	<path style="fill:#FFD940;" d="M77.279,257.348l0.005-0.014c-0.126-0.082-27.716-20.921-27.801-46.706
		c-0.076-25.793,27.373-46.786,27.489-46.879l0.002-0.007l0.007,0.01l0.006-0.006l-0.002,0.007
		c0.228,0.174,27.708,20.968,27.791,46.71C104.861,236.311,77.279,257.348,77.279,257.348z"/>
	<path style="fill:#FFD940;" d="M143.681,372.133l0.003-0.006l-0.011,0.002v-0.008l-0.004,0.006
		c-0.095-0.011-3.988-0.503-9.798-0.461c-0.324,0.457-0.656,0.909-0.999,1.355c14.421-18.713,10.823-48.216,10.81-48.353
		l0.003-0.006l-0.011,0.002v-0.008l-0.004,0.006c-0.095-0.011-3.988-0.504-9.798-0.461c-0.324,0.457-0.656,0.909-0.999,1.355
		c14.421-18.712,10.823-48.216,10.81-48.353l0.003-0.006l-0.011,0.002v-0.008l-0.004,0.006c-0.095-0.011-3.988-0.504-9.798-0.461
		c13.25-18.747,9.823-46.862,9.811-46.995l0.003-0.006l-0.011,0.002v-0.008l-0.004,0.006c-0.281-0.033-33.979-4.33-52.237,13.816
		c-9.768,9.707-13.14,23.874-14.16,34.997c-1.02-11.122-4.392-25.29-14.16-34.997c-18.257-18.146-51.956-13.85-52.236-13.816
		l-0.004-0.006v0.008l-0.013-0.002l0.003,0.006c-0.013,0.134-3.458,28.425,9.94,47.171c-0.043-0.06-0.088-0.117-0.131-0.176
		c-5.809-0.042-9.703,0.451-9.797,0.461l-0.004-0.006v0.008l-0.011-0.002l0.003,0.006c-0.013,0.136-3.611,29.641,10.81,48.353
		c-0.342-0.446-0.675-0.898-0.999-1.355c-5.809-0.042-9.703,0.451-9.797,0.461l-0.004-0.006v0.008l-0.013-0.002l0.003,0.006
		c-0.014,0.146-4.146,33.966,14.144,52.151c0.025,0.025,0.051,0.047,0.076,0.071l-14.206-4.764l-0.004-0.006v0.008l-0.013-0.002
		c0,0-4.143,33.973,14.147,52.159c18.29,18.175,52.095,13.836,52.241,13.807l0.005,0.013c0,0,0.008-0.073,0.021-0.179
		c0.011,0.105,0.02,0.179,0.02,0.179l0.005-0.013c0.146,0.029,33.952,4.368,52.241-13.807
		C147.827,406.099,143.695,372.279,143.681,372.133z M77.291,295.709l0.005-0.013c0.049,0.01,3.956,0.511,9.803,0.469
		c-6.499,9.191-8.983,20.631-9.828,29.929c-0.846-9.297-3.328-20.738-9.829-29.929c5.848,0.042,9.754-0.459,9.803-0.469l0.005,0.013
		 M77.291,390.638l0.005-0.013c0.049,0.01,4.014,0.52,9.937,0.469c-0.044,0-0.092,0.002-0.135,0.002
		c-6.499,9.191-8.983,20.633-9.828,29.929c-0.846-9.297-3.328-20.738-9.829-29.929l-0.006-0.002c5.851,0.043,9.76-0.459,9.81-0.469
		l0.005,0.013 M77.291,343.173l0.005-0.013c0.049,0.01,4.014,0.52,9.937,0.469c-0.044,0-0.092,0.002-0.135,0.002
		c-6.499,9.191-8.983,20.633-9.828,29.929c-0.846-9.297-3.328-20.738-9.829-29.929c-0.043,0-0.091-0.002-0.135-0.002
		c5.923,0.051,9.887-0.458,9.937-0.469l0.005,0.013"/>
	<path style="fill:#FFD940;" d="M256.019,180.277l-0.006,0.016c0,0,31.889-24.32,31.791-54.203
		c-0.095-29.761-31.866-53.8-32.13-54.001l0.002-0.009l-0.007,0.007l-0.008-0.011l-0.002,0.008
		c-0.134,0.108-31.869,24.378-31.781,54.198C223.974,156.091,255.873,180.182,256.019,180.277z"/>
	<path style="fill:#FFD940;" d="M332.782,312.999l0.004-0.007l-0.014,0.002v-0.01l-0.005,0.007
		c-0.109-0.013-4.612-0.583-11.328-0.534c-0.374,0.529-0.759,1.051-1.155,1.568c16.673-21.634,12.513-55.745,12.497-55.903
		l0.004-0.007l-0.014,0.002v-0.01l-0.005,0.007c-0.109-0.013-4.612-0.583-11.328-0.534c-0.374,0.529-0.759,1.051-1.155,1.568
		c16.673-21.634,12.513-55.745,12.497-55.903l0.004-0.007l-0.014,0.003v-0.01l-0.005,0.007c-0.109-0.013-4.612-0.583-11.328-0.534
		c-0.011,0.017-0.024,0.032-0.036,0.048c15.359-21.673,11.393-54.226,11.378-54.38l0.003-0.007l-0.014,0.002v-0.01l-0.005,0.007
		c-0.325-0.039-39.283-5.005-60.392,15.973c-11.292,11.221-15.192,27.603-16.371,40.461c-1.179-12.859-5.077-29.239-16.371-40.461
		c-21.109-20.978-60.067-16.013-60.392-15.973l-0.005-0.007v0.01l-0.014-0.002l0.004,0.007c-0.016,0.153-3.982,32.707,11.378,54.38
		c-0.011-0.017-0.024-0.032-0.035-0.048c-6.716-0.049-11.218,0.521-11.328,0.534l-0.004-0.007v0.01l-0.015-0.003l0.004,0.007
		c-0.015,0.153-3.969,32.66,11.354,54.332c-6.242,0.012-11.236,0.523-11.339,0.536l-0.004-0.007v0.01l-0.015-0.002l0.004,0.007
		c-0.016,0.158-4.196,34.4,12.59,56.028l-4.312-1.696c-6.716-0.049-8.153,0.524-8.263,0.537l-0.004-0.007v0.01l-0.015-0.002
		l0.004,0.007c-0.017,0.168-4.793,39.269,16.351,60.294c21.145,21.013,60.229,15.996,60.397,15.961l0.006,0.015
		c0,0,0.01-0.085,0.023-0.206c0.014,0.121,0.023,0.206,0.023,0.206l0.006-0.015c0.169,0.034,39.253,5.05,60.397-15.961
		C337.576,352.269,332.798,313.168,332.782,312.999z M255.975,224.629l0.006,0.015h0.046l0.006-0.015
		c0.057,0.011,4.574,0.591,11.333,0.542c-7.514,10.625-10.385,23.853-11.362,34.601c-0.977-10.748-3.848-23.976-11.362-34.601
		C251.401,225.22,255.918,224.641,255.975,224.629z M256.028,334.393l0.006-0.015c0.057,0.011,4.675,0.606,11.568,0.542
		c-0.077,0.001-0.158,0.002-0.235,0.003c-7.514,10.625-10.385,23.853-11.362,34.602c-0.977-10.749-3.848-23.976-11.362-34.602
		l-0.006-0.002c6.763,0.049,11.282-0.53,11.339-0.542l0.006,0.015 M267.367,280.047c-7.514,10.625-10.385,23.853-11.362,34.601
		c-0.977-10.749-3.848-23.976-11.362-34.601c-0.079-0.001-0.162-0.002-0.241-0.003c6.896,0.065,11.516-0.53,11.573-0.542
		l0.006,0.015h0.047l0.006-0.015c0.057,0.011,4.677,0.607,11.573,0.542C267.528,280.045,267.446,280.046,267.367,280.047z"/>
</g>
<path d="M509.249,318.09c-0.565-0.697-1.208-1.308-1.912-1.827c-0.076-0.056-0.164-0.098-0.241-0.152
	c6.473-17.951,4.806-36.601,4.434-39.936c-0.197-1.995-0.97-3.931-2.281-5.549c-0.562-0.693-1.201-1.302-1.898-1.818
	c-0.08-0.06-0.172-0.104-0.254-0.162c6.471-17.947,4.806-36.594,4.433-39.933c-0.486-4.924-4.521-8.934-9.452-9.381
	c-3.077-0.357-16.114-1.549-30.543,1.569c0.731-3.378,1.153-6.872,1.14-10.471c-0.094-29.294-27.552-51.619-31.664-54.796
	c-0.447-0.362-0.928-0.689-1.439-0.978c-2.045-1.155-4.463-1.609-6.869-1.207c-1.799,0.302-3.446,1.061-4.813,2.16
	c-3.811,2.978-31.477,25.617-31.389,55.052c0.011,3.499,0.41,6.896,1.112,10.171c-14.365-3.048-27.282-1.846-30.249-1.5
	c-4.919,0.458-8.938,4.446-9.432,9.362c-0.366,3.278-2.053,21.955,4.428,39.936c-0.796,0.553-1.523,1.218-2.152,1.994
	c-1.307,1.614-2.077,3.545-2.276,5.533c-0.367,3.284-2.052,21.958,4.428,39.937c-0.796,0.553-1.523,1.218-2.153,1.994
	c-1.307,1.614-2.077,3.545-2.276,5.533c-0.367,3.284-2.052,21.96,4.429,39.938c-0.796,0.553-1.524,1.218-2.153,1.993
	c-1.307,1.614-2.077,3.544-2.276,5.533c-0.517,4.626-3.676,39.869,17.173,60.6c14.543,14.451,35.83,17.208,49.211,17.326v18.926
	H266.474v-67.681c0.157,0.001,0.305,0.004,0.464,0.004c15.074,0,40.039-2.86,56.854-19.57c23.578-23.444,19.962-63.529,19.38-68.736
	c-0.346-3.446-2.429-6.543-5.482-8.174c7.914-20.811,5.905-42.926,5.482-46.701c-0.346-3.447-2.429-6.544-5.482-8.175
	c7.914-20.812,5.906-42.929,5.482-46.701c-0.277-2.758-1.673-5.347-3.831-7.089c-0.51-0.412-1.065-0.772-1.651-1.085
	c7.915-20.816,5.903-42.936,5.481-46.703c-0.495-4.93-4.541-8.928-9.474-9.37c-3.629-0.42-19.905-1.917-37.335,2.367
	c1.194-4.565,1.899-9.334,1.882-14.272c-0.108-33.097-31.306-58.458-35.972-62.066c-0.487-0.396-1.013-0.752-1.577-1.061
	c-0.243-0.134-0.491-0.257-0.74-0.37c-1.721-0.776-3.648-1.084-5.59-0.843c-1.95,0.243-3.753,1.025-5.234,2.212
	c-4.157,3.246-35.795,29.049-35.696,62.384c0.016,4.826,0.694,9.477,1.843,13.922c-17.364-4.192-33.494-2.681-36.992-2.271
	c-4.937,0.451-8.975,4.46-9.454,9.396c-0.428,3.833-2.414,25.9,5.483,46.672c-1.371,0.731-2.588,1.763-3.537,3.067
	c-1.117,1.537-1.77,3.314-1.946,5.134c-0.427,3.83-2.414,25.901,5.485,46.674c-1.371,0.731-2.59,1.763-3.539,3.068
	c-1.116,1.537-1.77,3.312-1.946,5.132c-0.427,3.827-2.415,25.901,5.485,46.677c-1.371,0.731-2.59,1.763-3.539,3.067
	c-1.116,1.537-1.77,3.312-1.946,5.132c-0.589,5.281-4.167,45.296,19.384,68.712c16.813,16.708,41.778,19.568,56.851,19.568
	c0.18,0,0.348-0.003,0.524-0.004v67.681H87.737V449.01c13.386-0.125,34.639-2.896,49.162-17.328
	c20.812-20.694,17.698-55.855,17.173-60.579c-0.173-1.757-0.792-3.477-1.849-4.982c-0.593-0.845-1.298-1.583-2.083-2.201
	c-0.161-0.126-0.331-0.24-0.5-0.358c6.467-17.94,4.805-36.575,4.432-39.923c-0.277-2.807-1.715-5.439-3.934-7.184
	c-0.16-0.126-0.33-0.24-0.499-0.357c6.468-17.942,4.805-36.579,4.432-39.926c-0.173-1.756-0.792-3.476-1.849-4.981
	c-0.592-0.844-1.295-1.58-2.079-2.197c-0.162-0.127-0.333-0.242-0.503-0.36c6.466-17.939,4.805-36.574,4.432-39.922
	c-0.487-4.934-4.524-8.933-9.457-9.386c-3.088-0.357-16.119-1.546-30.538,1.569c0.731-3.376,1.153-6.872,1.14-10.47
	c-0.094-29.312-27.587-51.646-31.671-54.801c-3.767-3.047-9.31-3.06-13.09-0.037c-3.691,2.882-31.501,25.588-31.413,55.071
	c0.011,3.499,0.41,6.896,1.112,10.171c-14.381-3.051-27.311-1.844-30.259-1.5c-4.912,0.461-8.932,4.45-9.423,9.363
	c-0.366,3.284-2.051,21.958,4.429,39.937c-0.821,0.571-1.571,1.258-2.212,2.065c-1.272,1.599-2.021,3.501-2.217,5.459
	c-0.366,3.278-2.053,21.957,4.43,39.94c-0.821,0.571-1.571,1.259-2.213,2.065c-1.272,1.599-2.021,3.501-2.217,5.459
	c-0.366,3.278-2.053,21.957,4.43,39.94c-0.821,0.571-1.571,1.259-2.213,2.065c-1.272,1.599-2.02,3.501-2.217,5.459
	c-0.517,4.623-3.676,39.869,17.174,60.601c14.542,14.45,35.829,17.208,49.21,17.326v18.926h-56.01
	c-5.765,0-10.44,4.674-10.44,10.441s4.675,10.44,10.44,10.44h456.946c5.765,0,10.44-4.674,10.44-10.44s-4.675-10.441-10.44-10.441
	h-22.596v-18.927c13.385-0.125,34.638-2.896,49.161-17.328c20.817-20.699,17.698-55.871,17.173-60.582
	c-0.196-1.996-0.969-3.932-2.281-5.551c-0.561-0.692-1.199-1.3-1.895-1.816c-0.081-0.061-0.174-0.105-0.258-0.164
	c6.472-17.948,4.807-36.596,4.434-39.935C511.333,321.644,510.561,319.709,509.249,318.09
	C508.684,317.392,510.561,319.709,509.249,318.09z M238.74,235.471c4.159,7.733,6.02,16.665,6.784,24.371
	c-0.298,3.59-0.406,6.903-0.41,9.785c-0.342-0.016-0.684-0.014-1.027,0.004c-12.473-0.199-30.502-2.915-41.147-13.494
	c-10.506-10.446-13.151-27.393-13.622-39.015C203.879,230.803,224.025,234.683,238.74,235.471z M322.691,217.122
	c-0.471,11.622-3.114,28.568-13.62,39.013c-10.66,10.594-28.704,13.297-41.187,13.493c-0.331-0.017-0.662-0.017-0.992-0.001
	c-0.004-2.873-0.114-6.172-0.41-9.752c0.762-7.711,2.627-16.655,6.792-24.405C287.988,234.682,308.13,230.801,322.691,217.122z
	 M309.071,311.011c-10.627,10.562-28.59,13.322-41.077,13.501c-0.367-0.022-0.735-0.026-1.101-0.008
	c-0.004-2.873-0.114-6.172-0.41-9.753c0.765-7.752,2.64-16.744,6.849-24.513c14.78-0.84,34.969-4.742,49.361-18.244
	C322.222,283.615,319.578,300.563,309.071,311.011z M245.526,314.746c-0.297,3.584-0.407,6.887-0.411,9.763
	c-0.134-0.006-0.264-0.026-0.399-0.027c-2.203-0.016-4.806-0.117-7.627-0.356c-11.58-1.032-25.366-4.384-34.15-13.113
	c-1.438-1.429-2.73-3.008-3.905-4.658c-7.289-10.363-9.313-24.34-9.718-34.362c14.392,13.504,34.582,17.404,49.361,18.244
	C242.886,298.006,244.761,306.998,245.526,314.746z M266.893,379.389c-0.003-2.876-0.114-6.178-0.41-9.763
	c0.765-7.752,2.64-16.744,6.849-24.513c14.779-0.839,34.969-4.742,49.362-18.244c-0.471,11.622-3.113,28.571-13.621,39.018
	C298.126,376.763,279.419,379.292,266.893,379.389z M322.783,158.295c-0.031,11.389-1.942,31.265-13.711,42.967
	c-10.941,10.873-29.67,13.436-42.172,13.505c-0.003-2.847-0.108-6.113-0.397-9.655c1.076-10.993,4.335-24.525,13.232-33.366
	c0,0,0-0.001,0.001-0.001C291.526,160.027,311.422,158.279,322.783,158.295z M255.716,86.001
	c8.249,7.938,21.594,23.362,21.647,40.123c0.055,16.858-13.232,32.357-21.422,40.304c-9.088-8.748-21.572-24.286-21.624-40.179
	C234.268,109.538,247.518,94.007,255.716,86.001z M232.275,171.745c0.358,0.356,0.679,0.741,1.019,1.112
	c0.481,0.562,0.961,1.108,1.439,1.643c7.04,8.702,9.816,20.509,10.797,30.348c-0.306,3.637-0.416,6.989-0.419,9.903
	c-0.353-0.016-0.706-0.014-1.061,0.006c-12.511-0.198-30.475-2.925-41.109-13.493c-11.771-11.704-13.681-31.584-13.714-42.972
	C200.564,158.215,220.476,160.019,232.275,171.745z M189.311,326.881c1.433,1.348,2.957,2.607,4.529,3.79
	c13.62,10.324,30.778,13.754,44.894,14.515c4.17,7.738,6.028,16.694,6.794,24.409c-0.299,3.597-0.409,6.911-0.413,9.795
	c-12.486-0.058-31.235-2.63-42.176-13.502C192.439,355.449,189.785,338.503,189.311,326.881z M59.368,380.199
	c-1.087-0.116-2.171-0.261-3.251-0.423c-6.946-1.071-14.282-3.241-20.072-7.301c-2.721-1.92-4.97-4.265-6.931-6.944
	c-5.335-7.595-7.296-17.554-7.929-25.596c12.342,10.087,28.224,13.223,40.273,13.961c3.225,6.296,4.716,13.482,5.344,19.738
	c-0.207,2.517-0.308,4.872-0.341,7.005c-1.972-0.039-4.229-0.149-6.676-0.395c-0.191-0.02-0.382-0.041-0.573-0.061
	C59.264,380.189,59.316,380.194,59.368,380.199C59.115,380.173,59.281,380.19,59.368,380.199
	C58.281,380.084,59.508,380.215,59.368,380.199C58.281,380.084,59.508,380.215,59.368,380.199z M61.459,306.434
	c3.22,6.287,4.711,13.464,5.341,19.714c-0.208,2.534-0.309,4.908-0.341,7.053c-10.513-0.232-25.348-2.561-34.091-11.25
	c-7.834-7.789-10.433-19.973-11.182-29.477C33.528,302.559,49.41,305.697,61.459,306.434z M122.178,369.413
	c-8.745,8.692-23.581,11.02-34.096,11.252c-0.031-2.104-0.131-4.423-0.33-6.902c0.624-6.297,2.109-13.544,5.338-19.867
	c12.048-0.738,27.927-3.877,40.267-13.959C132.61,349.44,130.01,361.625,122.178,369.413z M133.358,292.473
	c-0.749,9.504-3.348,21.688-11.18,29.475c-8.746,8.692-23.581,11.021-34.096,11.252c-0.031-2.105-0.131-4.427-0.331-6.908
	c0.625-6.291,2.11-13.534,5.338-19.859C105.139,305.695,121.018,302.556,133.358,292.473z M88.082,428.131
	c-0.031-2.104-0.131-4.423-0.33-6.902c0.624-6.297,2.109-13.544,5.338-19.867c12.048-0.738,27.928-3.877,40.268-13.96
	c-0.748,9.504-3.348,21.69-11.18,29.478C113.433,425.57,98.597,427.898,88.082,428.131z M122.178,274.485
	c-8.745,8.691-23.579,11.02-34.092,11.252c-0.032-2.159-0.131-4.54-0.342-7.093c0.919-9.183,3.658-20.346,11.048-27.689v-0.001
	c9.404-9.346,25.045-11.125,34.824-11.229C133.443,249.501,131.561,265.155,122.178,274.485z M77.029,177.756
	c6.998,6.926,17.263,19.363,17.306,32.742c0.042,12.67-9.572,25.295-17.105,32.897c-7.568-7.523-17.266-20.076-17.308-32.798
	C59.883,197.262,70.076,184.741,77.029,177.756z M55.751,250.954c0.474,0.471,0.915,0.968,1.351,1.469
	c0.163,0.187,0.327,0.38,0.49,0.564c6.012,7.27,8.37,17.282,9.207,25.656c-0.212,2.554-0.31,4.934-0.342,7.093
	c-10.514-0.233-25.347-2.561-34.09-11.25c-9.385-9.332-11.267-24.988-11.44-34.764C30.693,239.826,46.344,241.604,55.751,250.954z
	 M41.041,397.768c7.158,2.222,14.291,3.22,20.43,3.595c3.226,6.302,4.701,13.497,5.329,19.757c-0.206,2.52-0.307,4.878-0.339,7.012
	c-10.513-0.232-25.35-2.561-34.093-11.25c-7.828-7.783-10.436-19.967-11.187-29.468C21.294,387.506,33.898,395.744,41.041,397.768z
	 M416.837,380.201c-11.458-1.212-23.235-5.019-30.27-14.675c-5.331-7.594-7.291-17.549-7.923-25.59
	c12.343,10.087,28.224,13.223,40.273,13.96c3.225,6.297,4.716,13.485,5.344,19.742c-0.207,2.515-0.308,4.868-0.34,7
	c-1.974-0.039-4.235-0.149-6.683-0.396C417.103,380.229,416.971,380.216,416.837,380.201
	C416.389,380.153,416.971,380.216,416.837,380.201z M418.917,306.434c3.221,6.289,4.712,13.467,5.341,19.718
	c-0.208,2.533-0.309,4.904-0.341,7.047c-10.514-0.232-25.348-2.561-34.092-11.25c-7.833-7.789-10.432-19.973-11.181-29.477
	C390.986,302.559,406.868,305.697,418.917,306.434z M490.816,292.472c-0.748,9.504-3.348,21.688-11.181,29.476
	c-8.746,8.692-23.582,11.02-34.096,11.252c-0.031-2.104-0.13-4.424-0.33-6.904c0.624-6.292,2.11-13.537,5.338-19.864
	C462.597,305.695,478.477,302.556,490.816,292.472z M445.54,380.666c-0.032-2.138-0.134-4.501-0.341-7.027
	c0.63-6.258,2.119-13.446,5.344-19.742c12.049-0.738,27.93-3.876,40.273-13.96c-0.748,9.504-3.347,21.689-11.18,29.478
	C470.889,378.105,456.055,380.433,445.54,380.666z M479.635,274.485c-8.745,8.692-23.579,11.02-34.092,11.252
	c-0.031-2.106-0.127-4.424-0.328-6.906c0.911-9.237,3.636-20.526,11.034-27.876v-0.001c9.405-9.346,25.046-11.126,34.825-11.229
	C490.902,249.501,489.019,265.155,479.635,274.485z M434.485,177.752c6.998,6.926,17.266,19.364,17.309,32.746
	c0.042,12.67-9.573,25.296-17.106,32.897c-7.568-7.523-17.266-20.076-17.307-32.798
	C417.341,197.245,427.532,184.732,434.485,177.752z M415.052,252.989c6.011,7.269,8.369,17.279,9.206,25.652
	c-0.212,2.555-0.31,4.936-0.342,7.095c-10.514-0.233-25.347-2.562-34.09-11.25c-9.385-9.332-11.268-24.988-11.441-34.764
	c9.766,0.103,25.418,1.881,34.825,11.231C413.683,251.424,414.446,252.303,415.052,252.989z M395.927,396.918
	c8.005,2.825,16.127,4.025,23.001,4.444c3.227,6.303,4.702,13.499,5.33,19.758c-0.206,2.519-0.307,4.877-0.339,7.011
	c-10.514-0.232-25.351-2.56-34.094-11.25c-7.828-7.783-10.436-19.966-11.186-29.468
	C378.751,387.505,389.708,394.686,395.927,396.918z M445.54,428.131c-0.032-2.138-0.134-4.501-0.341-7.027
	c0.63-6.258,2.119-13.446,5.344-19.742c12.049-0.738,27.931-3.876,40.274-13.961c-0.748,9.504-3.348,21.69-11.181,29.479
	C470.889,425.57,456.055,427.898,445.54,428.131z"/>
<path d="M501.549,467.942h-0.522c-5.765,0-10.441,4.674-10.441,10.441s4.675,10.44,10.441,10.44h0.522
	c5.765,0,10.441-4.674,10.441-10.44S507.314,467.942,501.549,467.942z"/>
<path d="M445.097,44.058h0.135c5.765,0,10.44-4.674,10.44-10.441s-4.675-10.44-10.44-10.44h-0.135c-5.765,0-10.44,4.674-10.44,10.44
	S439.332,44.058,445.097,44.058z"/>
<path d="M323.003,44.058h88.976c5.765,0,10.441-4.674,10.441-10.441s-4.675-10.44-10.441-10.44h-88.976
	c-5.765,0-10.44,4.674-10.44,10.44S317.238,44.058,323.003,44.058z"/>
<path d="M387.748,64.939c0,5.766,4.675,10.44,10.44,10.44h103.361c5.765,0,10.441-4.674,10.441-10.44
	c0-5.766-4.675-10.44-10.441-10.44H398.188C392.422,54.498,387.748,59.173,387.748,64.939z"/>
<path d="M360.602,85.821c-5.765,0-10.44,4.674-10.44,10.44s4.675,10.44,10.44,10.44h83.886c5.765,0,10.44-4.674,10.44-10.44
	s-4.675-10.44-10.44-10.44H360.602z"/>
</svg>